Coordinates
version=1
nRows=5
nColumns=53
inDegrees=yes

Units are S.I. units (second, meters, Newtons, ...)
Angles are in degrees.

endheader
time	pelvis_tilt	pelvis_list	pelvis_rot	pelvis_tx	pelvis_ty	pelvis_tz	hip_flex_r	hip_add_r	hip_rot_r	pf_flex_r	pf_rot_r	pf_tilt_r	pf_tx_r	pf_ty_r	pf_tz_r	knee_flex_r	knee_add_r	knee_rot_r	knee_tx_r	knee_ty_r	knee_tz_r	ankle_flex_r	subt_angle_r	mtp_angle_r	hip_flex_l	hip_add_l	hip_rot_l	pf_l_r3	pf_l_tx	pf_l_ty	knee_flex_l	ankle_flex_l	subt_angle_l	mtp_angle_l	lumbar_ext	lumbar_latbend	lumbar_rot	neck_ext	neck_latbend	neck_rot	arm_add_r	arm_flex_r	arm_rot_r	elbow_flex_r	pro_sup_r	wrist_flex_r	arm_add_l	arm_flex_l	arm_rot_l	elbow_flex_l	pro_sup_l	wrist_flex_l
      0.59000000	     -3.83228584	      0.32092967	     -1.20459732	     -0.86344500	      0.91448573	     -0.17829508	     -3.25259386	      2.14236566	     -5.23010501	      0.00000000	      0.00000000	      0.00000000	      0.05300000	      0.00500000	      0.00400000	     -0.36429812	     -0.53386272	      0.33464720	      0.00813778	      0.00198407	     -0.00018817	      5.17635752	     -1.60886115	      0.00000000	     24.37219564	      3.81324335	      4.45275123	      0.06513700	      0.04435000	     -0.41871200	      0.56069434	      0.02785435	      0.05849072	      0.00000000	    -12.39065644	     -2.73867388	     -1.15486877	      0.00000000	      0.00000000	      0.00000000	    -19.85355536	     24.87045087	     41.68768184	     23.69067979	     65.92312966	      0.00000000	    -14.86592558	      3.25495570	     33.35214515	      7.68546554	     57.45045276	      0.00000000
      0.59500000	     -3.97509468	      0.27931263	     -1.31704571	     -0.85720990	      0.91368501	     -0.17838412	     -3.69767674	      2.16892194	     -5.15735050	      0.00000000	      0.00000000	      0.00000000	      0.05300000	      0.00500000	      0.00400000	     -0.71400592	     -0.55076184	      0.45815171	      0.00767343	      0.00184806	     -0.00042580	      5.33935563	     -1.55579643	      0.00000000	     24.54118016	      3.68752659	      3.93835872	      0.06513700	      0.04435000	     -0.41871200	      0.52235394	      0.03077784	      0.05722261	      0.00000000	    -12.22890193	     -2.75580093	     -0.76564132	      0.00000000	      0.00000000	      0.00000000	    -20.15585031	     24.98769193	     41.60109252	     23.72288101	     65.93575080	      0.00000000	    -14.86988889	      2.62595234	     33.38546823	      7.37720972	     57.43342633	      0.00000000
      0.60000000	     -4.07498896	      0.30043727	     -1.44458414	     -0.85092108	      0.91283448	     -0.17848733	     -4.21603350	      2.10918475	     -5.10907072	      0.00000000	      0.00000000	      0.00000000	      0.05300000	      0.00500000	      0.00400000	     -1.05777751	     -0.53687526	      0.53781724	      0.00761768	      0.00189052	     -0.00063290	      5.55770309	     -1.50918069	      0.00000000	     24.58767760	      3.48496313	      3.32720035	      0.06513700	      0.04435000	     -0.41871200	      0.48167078	      0.03085399	      0.05272835	      0.00000000	    -12.13341324	     -2.83829129	     -0.49169086	      0.00000000	      0.00000000	      0.00000000	    -20.41543770	     25.21021108	     41.49268329	     23.85436358	     65.96015820	      0.00000000	    -14.85670979	      1.94709308	     33.41813691	      6.97066375	     57.41137125	      0.00000000
      0.60500000	     -4.17756784	      0.28895396	     -1.54957748	     -0.84463156	      0.91185991	     -0.17860779	     -4.71658262	      2.07769390	     -5.06103262	      0.00000000	      0.00000000	      0.00000000	      0.05300000	      0.00500000	      0.00400000	     -1.37252039	     -0.51937890	      0.58926845	      0.00750003	      0.00195747	     -0.00093214	      5.79515891	     -1.45274932	      0.00000000	     24.61586585	      3.32561446	      2.62084466	      0.06513700	      0.04435000	     -0.41871200	      0.43993916	      0.02813304	      0.04550267	      0.00000000	    -12.03242876	     -2.88176615	     -0.26765942	      0.00000000	      0.00000000	      0.00000000	    -20.65899115	     25.46919918	     41.37211559	     24.04765842	     65.99198070	      0.00000000	    -14.83724755	      1.25514120	     33.44035110	      6.51197701	     57.38647181	      0.00000000
      0.61000000	     -4.20959222	      0.33443971	     -1.65497235	     -0.83827475	      0.91087670	     -0.17880400	     -5.26708496	      1.95576676	     -5.05620304	      0.00000000	      0.00000000	      0.00000000	      0.05300000	      0.00500000	      0.00400000	     -1.59371132	     -0.36573934	      0.42679974	      0.00767168	      0.00215633	     -0.00060445	      6.22198337	     -1.14966354	      0.00000000	     24.48690343	      3.08104257	      1.83180687	      0.06513700	      0.04435000	     -0.41871200	      0.39429777	      0.00418761	      0.01246210	      0.00000000	    -11.97904586	     -2.98502541	     -0.20358432	      0.00000000	      0.00000000	      0.00000000	    -20.91263951	     25.83913649	     41.04395900	     24.86060302	     66.11685360	      0.00000000	    -14.71566341	      0.59519905	     33.49703769	      5.28854284	     57.29846349	      0.00000000
